<?xml version="1.0" encoding="UTF-8" standalone="no"?>
<!-- Created with Inkscape (http://www.inkscape.org/) -->

<svg
   xmlns:dc="http://purl.org/dc/elements/1.1/"
   xmlns:cc="http://creativecommons.org/ns#"
   xmlns:rdf="http://www.w3.org/1999/02/22-rdf-syntax-ns#"
   xmlns:svg="http://www.w3.org/2000/svg"
   xmlns="http://www.w3.org/2000/svg"
   xmlns:xlink="http://www.w3.org/1999/xlink"
   xmlns:sodipodi="http://sodipodi.sourceforge.net/DTD/sodipodi-0.dtd"
   xmlns:inkscape="http://www.inkscape.org/namespaces/inkscape"
   width="800"
   height="480"
   id="svg3183"
   version="1.1"
   inkscape:version="0.48.3.1 r9886"
   sodipodi:docname="menu_screen.svg">
  <defs
     id="defs3185">
    <linearGradient
       inkscape:collect="always"
       id="linearGradient4013">
      <stop
         style="stop-color:#ffffff;stop-opacity:1;"
         offset="0"
         id="stop4015" />
      <stop
         style="stop-color:#ffffff;stop-opacity:0;"
         offset="1"
         id="stop4017" />
    </linearGradient>
    <linearGradient
       id="linearGradient3997">
      <stop
         style="stop-color:#00ffff;stop-opacity:1;"
         offset="0"
         id="stop3999" />
      <stop
         style="stop-color:#00ffff;stop-opacity:0;"
         offset="1"
         id="stop4001" />
    </linearGradient>
    <linearGradient
       gradientUnits="userSpaceOnUse"
       gradientTransform="scale(0.97563462,1.0249739)"
       xlink:href="#linearGradient812"
       y2="599.55859"
       x2="511.15817"
       y1="224.28056"
       x1="74.681747"
       id="linearGradient778" />
    <linearGradient
       id="linearGradient812">
      <stop
         offset="0"
         stop-color="#ff0000"
         id="stop813" />
      <stop
         offset="1"
         stop-opacity="0.9294"
         stop-color="#9d0000"
         id="stop814" />
    </linearGradient>
    <radialGradient
       id="path3626_1_"
       cx="432.87299"
       cy="-502.41019"
       r="222.73309"
       gradientTransform="matrix(-0.3993,1.0198,1.0431,0.4084,796.4014,-136.795)"
       gradientUnits="userSpaceOnUse">
      <stop
         offset="0"
         style="stop-color:#F3F4F8"
         id="stop10" />
      <stop
         offset="0.6988"
         style="stop-color:#F8F9FD"
         id="stop12" />
      <stop
         offset="1"
         style="stop-color:#CFD1D0"
         id="stop14" />
    </radialGradient>
    <radialGradient
       id="path3628_1_"
       cx="44.0942"
       cy="167.7188"
       r="238.1982"
       gradientTransform="matrix(-0.3645,0.9312,-0.9312,-0.3645,228.4255,43.119)"
       gradientUnits="userSpaceOnUse">
      <stop
         offset="0"
         style="stop-color:#A9173C"
         id="stop19" />
      <stop
         offset="1"
         style="stop-color:#7C102C"
         id="stop21" />
    </radialGradient>
    <linearGradient
       gradientUnits="userSpaceOnUse"
       gradientTransform="scale(0.97563462,1.0249739)"
       xlink:href="#linearGradient812-6"
       y2="599.55859"
       x2="511.15817"
       y1="224.28056"
       x1="74.681747"
       id="linearGradient778-7" />
    <linearGradient
       id="linearGradient812-6">
      <stop
         offset="0"
         stop-color="#ff0000"
         id="stop813-4" />
      <stop
         offset="1"
         stop-opacity="0.9294"
         stop-color="#9d0000"
         id="stop814-1" />
    </linearGradient>
    <radialGradient
       id="path3626_1_-4"
       cx="432.87299"
       cy="-502.41019"
       r="222.73309"
       gradientTransform="matrix(-0.3993,1.0198,1.0431,0.4084,796.4014,-136.795)"
       gradientUnits="userSpaceOnUse">
      <stop
         offset="0"
         style="stop-color:#F3F4F8"
         id="stop10-8" />
      <stop
         offset="0.6988"
         style="stop-color:#F8F9FD"
         id="stop12-6" />
      <stop
         offset="1"
         style="stop-color:#CFD1D0"
         id="stop14-6" />
    </radialGradient>
    <radialGradient
       id="path3628_1_-4"
       cx="44.0942"
       cy="167.7188"
       r="238.1982"
       gradientTransform="matrix(-0.3645,0.9312,-0.9312,-0.3645,228.4255,43.119)"
       gradientUnits="userSpaceOnUse">
      <stop
         offset="0"
         style="stop-color:#A9173C"
         id="stop19-2" />
      <stop
         offset="1"
         style="stop-color:#7C102C"
         id="stop21-6" />
    </radialGradient>
    <linearGradient
       inkscape:collect="always"
       xlink:href="#linearGradient812-6"
       id="linearGradient3872"
       gradientUnits="userSpaceOnUse"
       gradientTransform="scale(0.97563462,1.0249739)"
       x1="74.681747"
       y1="224.28056"
       x2="511.15817"
       y2="599.55859" />
    <linearGradient
       inkscape:collect="always"
       xlink:href="#linearGradient4013"
       id="linearGradient4011"
       x1="85.243896"
       y1="879.70703"
       x2="378.16058"
       y2="879.70703"
       gradientUnits="userSpaceOnUse"
       spreadMethod="reflect"
       gradientTransform="matrix(0.99882883,0.05837042,0.05942064,1.0046449,-38.343622,-23.650729)" />
    <linearGradient
       inkscape:collect="always"
       xlink:href="#linearGradient4013"
       id="linearGradient4019"
       x1="85.243894"
       y1="879.70705"
       x2="378.16059"
       y2="879.70705"
       gradientUnits="userSpaceOnUse"
       gradientTransform="matrix(0.99882883,0.05837042,0.05942064,1.0046449,-38.343622,-23.650729)" />
  </defs>
  <sodipodi:namedview
     id="base"
     pagecolor="#ffffff"
     bordercolor="#666666"
     borderopacity="1"
     inkscape:pageopacity="0.0"
     inkscape:pageshadow="2"
     inkscape:zoom="1.2316035"
     inkscape:cx="383.52331"
     inkscape:cy="246.10033"
     inkscape:document-units="px"
     inkscape:current-layer="layer1"
     showgrid="false"
     inkscape:window-width="1680"
     inkscape:window-height="1025"
     inkscape:window-x="1920"
     inkscape:window-y="0"
     inkscape:window-maximized="1" />
  <metadata
     id="metadata3188">
    <rdf:RDF>
      <cc:Work
         rdf:about="">
        <dc:format>image/svg+xml</dc:format>
        <dc:type
           rdf:resource="http://purl.org/dc/dcmitype/StillImage" />
        <dc:title />
      </cc:Work>
    </rdf:RDF>
  </metadata>
  <g
     inkscape:label="Layer 1"
     inkscape:groupmode="layer"
     id="layer1"
     transform="translate(0,-572.36218)">
    <rect
       y="572.8595"
       x="-0.010633133"
       height="479.31033"
       width="800.00208"
       id="rect3557"
       style="fill:#00ffff;stroke:#000000;stroke-width:1.00054048999999989;fill-opacity:1" />
    <text
       xml:space="preserve"
       style="font-size:40px;font-style:normal;font-weight:normal;line-height:125%;letter-spacing:0px;word-spacing:0px;fill:#ff0000;fill-opacity:1;stroke:none;font-family:Sans"
       x="57.758621"
       y="280"
       id="text3874"
       sodipodi:linespacing="125%"
       transform="translate(0,572.36218)"><tspan
         sodipodi:role="line"
         id="tspan3876"
         x="57.758621"
         y="280" /></text>
    <g
       transform="matrix(1.5291667,0,-3.7144414e-8,1.317937,-2182.8651,564.96914)"
       id="layer1-7"
       inkscape:label="Layer 1"
       style="fill:#008000">
      <path
         inkscape:connector-curvature="0"
         style="fill:#008000;fill-opacity:1;fill-rule:nonzero;stroke:none"
         d="m 1576.3752,272.46749 c 1.8592,20.28934 -8.1055,72.94922 -8.1055,72.94922 -7.0652,-20.88604 -8.2855,-62.86241 -8.2855,-62.86241 -5.9498,17.90236 -10.4471,51.33463 -10.4471,51.33463 -2.603,-10.94035 -8.826,-36.20443 -8.826,-36.20443 -2.6029,15.31647 -4.503,53.67622 -4.503,53.67622 -9.6683,-23.47199 -16.7513,-65.92448 -16.7513,-65.92448 -6.6935,16.70883 -11.888,55.83767 -11.888,55.83767 -8.1808,-20.09042 -11.1675,-42.50868 -11.1675,-42.50868 -7.0654,21.28387 -8.826,50.9744 -8.826,50.9744 -7.4372,-64.44847 -17.4718,-74.57032 -17.4718,-74.57032 1.8593,21.68174 -5.944,68.98655 -5.944,68.98655 -5.2059,-14.91862 -11.1675,-40.34722 -11.1675,-40.34722 -1.4874,17.70344 -7.2049,40.70746 -7.2049,40.70746 -6.6934,-26.85346 -8.4657,-64.30338 -8.4657,-64.30338 -3.499,11.85414 -7.6034,36.45803 -9.5465,48.63281 l 0,40.34722 337.5478,0 0.7205,0 184.0842,0 0,-81.77517 c -6.3583,17.5557 -11.1675,53.85633 -11.1675,53.85633 -8.1808,-20.09042 -11.1676,-42.50868 -11.1676,-42.50868 -7.0653,21.28387 -8.8259,50.9744 -8.8259,50.9744 -7.4371,-64.44847 -17.4718,-74.57032 -17.4718,-74.57032 1.8593,21.68174 -5.944,68.98655 -5.944,68.98655 -5.206,-14.91862 -11.1676,-40.34722 -11.1676,-40.34722 -1.4873,17.70344 -7.0247,40.70746 -7.0247,40.70746 -6.6934,-26.85346 -8.6458,-64.30338 -8.6458,-64.30338 -4.4623,15.11755 -11.1676,58.89974 -11.1676,58.89974 -2.2311,-18.89694 -8.4657,-46.65148 -8.4657,-46.65148 1.4874,21.48285 -5.2235,59.4401 -5.2235,59.4401 -3.7185,-26.25677 -16.3911,-67.54557 -16.3911,-67.54557 -0.7437,15.11753 -7.0247,51.875 -7.0247,51.875 -2.9749,-9.15005 -8.2856,-44.12977 -8.2856,-44.12977 -5.206,19.2947 -7.7452,60.34071 -7.7452,60.34071 -13.5298,-65.137 -16.5456,-71.73874 -17.1116,-72.22873 4.0904,41.3743 -4.503,67.18533 -4.503,67.18533 -9.6684,-21.68175 -10.8073,-57.63889 -10.8073,-57.63889 -2.6031,9.15009 -4.4796,19.95442 -5.2235,29.90017 -0.7303,8.20299 -1.0716,15.79428 -1.2609,21.43446 -1.3866,-18.18389 -5.7639,-37.28515 -5.7639,-37.28515 -1.4873,10.5425 -10.0868,42.50868 -10.0868,42.50868 -1.1156,-34.81013 -8.8259,-64.84375 -8.8259,-64.84375 -0.7438,23.67089 -12.4284,59.62022 -12.4284,59.62022 -1.4874,-14.91861 -7.7452,-43.58941 -7.7452,-43.58941 -3.3467,10.94033 -5.2236,48.81294 -5.2236,48.81294 -14.1305,-21.28387 -12.2482,-70.06728 -12.2482,-70.06728 -8.1808,21.48282 -11.5278,65.56424 -11.5278,65.56424 -3.7186,-19.69257 -11.1675,-43.58941 -11.1675,-43.58941 -1.1155,25.66003 -14.0495,50.79427 -14.0495,50.79427 2.6029,-32.42315 -6.6645,-63.04253 -6.6645,-63.04253 -2.2311,25.26219 -7.2049,52.05512 -7.2049,52.05512 -4.0904,-12.33273 -6.6645,-42.14844 -6.6645,-42.14844 -4.4623,18.49907 -3.2422,46.47135 -3.2422,46.47135 -15.618,-21.48279 -16.0308,-36.20442 -16.0308,-36.20442 -3.3467,10.34355 -7.5651,42.50868 -7.5651,42.50868 -0.7437,-37.19709 -8.1055,-60.88108 -8.1055,-60.88108 0.3718,15.31647 -10.0868,53.31597 -10.0868,53.31597 -3.3466,-9.34901 -5.2235,-36.74479 -5.2235,-36.74479 -3.3466,11.73598 -6.3042,37.46528 -6.3042,37.46528 -2.2312,-35.20794 -12.9688,-69.34679 -12.9688,-69.34679 z"
         id="path83" />
    </g>
    <text
       transform="matrix(0.88633228,-0.00562126,-0.00551131,1.12828,0,0)"
       sodipodi:linespacing="125%"
       id="text3025-7"
       y="594.93445"
       x="195.8364"
       style="font-size:96.70511627px;font-style:normal;font-variant:normal;font-weight:bold;font-stretch:normal;text-align:start;line-height:125%;letter-spacing:0px;word-spacing:0px;writing-mode:lr-tb;text-anchor:start;fill:#803300;fill-opacity:1;stroke:none;font-family:Bitstream Charter;-inkscape-font-specification:Bitstream Charter Bold"
       xml:space="preserve"><tspan
         style="font-size:96.70511627px;font-style:normal;font-variant:normal;font-weight:bold;font-stretch:normal;text-align:start;line-height:125%;writing-mode:lr-tb;text-anchor:start;fill:#803300;font-family:Bitstream Charter;-inkscape-font-specification:Bitstream Charter Bold"
         y="594.93445"
         x="195.8364"
         id="tspan3027-8"
         sodipodi:role="line">Game Menu</tspan></text>
    <path
       inkscape:connector-curvature="0"
       style="fill:#008000"
       d="m 112.04138,657.55968 c -0.25423,-0.0865 -1.74113,0.21817 -3.3023,0.68964 -1.56086,0.47189 -4.43428,0.82271 -6.36785,0.78459 -13.979613,-0.27502 -20.435948,2.68153 -24.219263,11.05119 -2.71923,6.01374 -11.347726,14.52914 -4.434645,2.88566 2.056254,-3.46271 -0.4988,-8.8981 -4.309374,-12.03842 -1.976063,-1.62853 -3.251772,-0.73153 -5.329466,3.73068 -2.137505,4.58911 -2.402712,7.39321 -1.171283,12.46547 0.509539,2.09833 0.837996,4.12402 0.712656,4.511 -0.276342,0.85207 -7.389178,3.40675 -8.466313,3.04024 -0.421267,-0.14342 -0.669683,-1.05625 -0.557484,-2.01228 0.487308,-4.15917 -4.899346,-10.67718 -11.784449,-14.27757 -2.096429,-1.09643 -4.537136,-2.57176 -5.432515,-3.27849 -0.895442,-0.70665 -1.840292,-1.1881 -2.100664,-1.06273 -0.260064,0.12581 0.12476,1.93862 0.867672,4.03304 0.742933,2.09441 1.512039,4.92569 1.705458,6.283 0.193799,1.35767 1.281521,4.03729 2.417458,5.96297 1.517096,2.57163 1.872935,3.72795 1.339689,4.35627 -0.398885,0.47093 -1.118194,0.72375 -1.615697,0.55449 -0.497492,-0.16925 -1.808378,-0.31129 -2.889159,-0.33285 -12.258206,-0.24513 -16.012122,-1.00884 -20.285034,-4.01743 -3.065017,-2.15811 -9.2036704,-6.65145 -12.101051,-7.63709 -3.85004204,-1.30993 -10.7162907,1.30791 2.8194053,6.59889 7.0449607,4.72397 13.9524017,8.67937 21.7935797,18.48577 2.174983,3.11961 4.783481,6.03831 6.559655,9.35337 -0.223539,0.62913 -2.222296,1.20628 -9.079285,2.6103 -7.682663,1.57317 -14.163338,6.01207 -18.9946314,12.99872 -2.2532413,3.25837 -2.9793355,4.87174 -4.5276964,10.24813 -1.0098113,3.50714 -1.97953,7.39749 -2.1762846,8.64318 -0.35253713,2.22136 0.230008,3.24386 1.1273341,1.97586 4.5888743,-6.48319 11.4878763,-10.96 20.4420033,-13.24688 7.539144,-1.92499 14.48692,-7.86114 15.741798,-13.42824 0.907611,-4.02713 2.016174,-4.35448 4.636091,-1.45752 1.160249,1.28285 2.109876,2.74743 2.127761,3.26039 0.02011,0.56508 -1.516638,1.687 -3.890977,2.87195 -4.495958,2.24336 -6.71884,4.26238 -10.415982,9.38015 -6.963248,9.6388 -8.420699,24.01261 -3.772817,37.2089 1.413816,4.01465 4.948333,8.42103 6.266398,7.8217 0.349592,-0.15869 0.660349,-2.67235 0.691186,-5.59156 0.05103,-4.8524 0.287179,-5.99256 2.876783,-13.25816 2.349833,-6.59079 3.489047,-8.98417 6.698194,-13.96308 2.595458,-4.0266 4.465099,-7.62689 5.660127,-10.95583 1.442502,-4.01926 1.957561,-4.90901 2.652507,-4.65981 1.092782,0.39173 4.963702,5.88816 5.006229,7.10601 0.0181,0.50619 -0.979155,2.37667 -2.224031,4.15068 -8.498508,12.10764 -9.298046,28.84612 -2.123277,44.70824 1.588775,3.51224 3.532479,7.05627 4.314397,7.8665 l 1.408387,1.45726 0.189548,-1.74447 c 0.850404,-8.39269 1.399676,-11.00522 3.832609,-18.00308 2.585128,-7.4366 4.384272,-15.7631 3.956624,-18.38545 -0.114321,-0.70157 -0.715997,-4.49532 -0.469445,-5.20287 0.405748,-1.1662 1.264221,1.62594 2.408903,4.2301 0.649014,2.27874 1.321068,4.38286 1.154159,6.7842 0.343844,1.13559 -0.255136,6.32926 -0.974554,8.37913 -1.024849,2.92038 0.542981,12.37369 2.859422,17.1662 2.072902,4.28894 9.678113,15.63879 10.708856,15.98927 0.320494,0.10913 1.834882,1.55322 3.388688,3.21978 3.179637,3.41021 4.288969,3.37479 4.47548,-0.15034 0.05654,-1.06946 0.449276,-2.92172 0.864833,-4.11641 1.151225,-3.30762 1.014605,-16.83206 -0.207687,-21.0697 -1.237931,-4.29255 -4.891462,-12.30212 -5.752767,-12.59514 -2.827381,-3.89548 -5.880194,-7.47776 -9.638146,-10.5524 -2.231798,-1.8411 -6.971385,-9.28912 -6.091698,-9.71355 0.233539,-0.11278 4.20625,3.67497 6.697583,5.40964 9.299239,6.47487 14.688246,6.903 28.641452,2.26325 5.03419,-1.67419 10.01112,-3.09808 11.03893,-3.14261 2.20885,-0.0954 2.40162,0.13455 -5.0009,-5.32453 -7.14634,-5.27012 -9.70998,-6.6205 -18.123075,-9.46527 -5.860603,-1.98197 -8.428019,-2.58393 -11.151978,-2.59845 -5.359689,-0.0288 -10.761236,0.54785 -14.286569,1.51787 -4.086592,0.16618 -7.492177,-0.33411 -6.341894,-3.70315 10.56046,0.78629 20.300684,-1.89103 29.891783,-8.416 5.551268,-3.77747 9.718703,-7.4318 9.349616,-8.18022 -0.153015,-0.30987 -1.520417,-0.51509 -3.054675,-0.44113 -1.533883,0.0743 -6.550006,-0.73848 -11.129786,-1.81624 -4.580157,-1.07814 -9.748409,-1.97258 -11.513186,-1.98739 -7.346235,-0.0613 -12.731265,2.17234 -17.859637,7.41141 -2.747146,2.80655 -3.127837,3.00064 -4.317489,2.23445 -2.333731,-1.50323 -6.341457,-7.19006 -6.06588,-8.61392 2.741448,-0.47955 8.373205,-1.55269 12.124317,-2.02341 1.683887,-0.39347 6.841669,-2.49803 11.459683,-4.65258 4.61765,-2.15492 8.836324,-3.98255 9.374003,-4.07963 0.537658,-0.097 1.093568,-0.56327 1.251612,-1.01716 0.328804,-0.9442 -1.480145,-1.69853 -4.248424,-1.78693 -1.014703,-0.0321 -4.556486,-0.62655 -7.857218,-1.31225 -10.685522,-2.2202 -20.108472,-1.73834 -24.508935,1.27291 -1.864943,1.64041 -3.715336,3.15435 -5.108283,5.23329 l -1.858303,-2.48662 c -2.326569,-3.09098 -7.78022,-9.63575 -9.552405,-11.47404 -1.752424,-1.81784 -0.912492,-3.15051 1.845533,-2.90636 1.199196,0.10596 4.460103,0.29998 7.250268,0.41912 6.358183,0.27109 15.54148,1.1476 16.964442,1.63164 0.59279,0.20172 1.470279,0.18788 1.952001,-0.0448 0.652512,-0.315 1.995065,0.1498 5.255652,1.85192 7.366105,3.84528 11.417401,4.08517 22.489399,1.28062 3.512874,-0.88963 6.715612,-1.50863 7.122111,-1.37027 1.327706,0.45152 0.786096,-1.24166 -0.756038,-2.36669 -0.828404,-0.6044 -4.922734,-2.29093 -9.101363,-3.75924 -4.178214,-1.468 -10.9101,-1.42855 -10.816856,-1.69846 0.09364,-0.26957 5.069654,-2.85743 6.898061,-3.94663 3.270916,-1.94996 3.35727,-1.95114 6.618325,-0.8416 3.734458,1.27057 7.759199,0.93208 12.379289,-1.03099 2.526126,-1.07319 8.487819,-5.15976 8.787129,-6.02062 0.0716,-0.20586 0.98438,-1.2795 2.03444,-2.40619 1.05003,-1.12668 2.44828,-2.6817 3.11409,-3.43447 1.375,-1.55324 3.81862,-8.05051 3.11505,-8.28979 z"
       id="path2831" />
    <path
       inkscape:connector-curvature="0"
       style="fill:#008000"
       d="m -0.07173925,674.8206 c 1.50669195,2.36809 3.67750895,2.6256 6.34665095,1.78244 -0.550272,-5.45949 -4.009122,-8.88479 0.004,-15.65061 3.7186533,-4.8134 8.1747543,-10.23312 14.0883253,-10.95183 9.933876,6.76471 18.558146,11.21321 30.949362,1.17856 2.082297,-2.48874 5.744343,-5.49561 8.071748,-7.76236 -0.298357,-2.64715 -6.839665,-3.06812 -9.064768,-3.93835 -12.0991,-6.01518 -19.655914,-5.21509 -30.244022,5.70059 -3.743584,1.73822 -7.032303,4.4987 -10.787645,6.19024 3.137295,-7.90001 16.871513,-18.64283 22.75496,-20.63514 10.081821,-1.25274 19.564237,-4.46876 29.161804,-9.19428 7.750545,1.55416 16.114135,0.5733 21.754588,-4.83354 5.69464,-5.45913 10.67864,-20.26691 8.03171,-23.10835 -2.59486,-2.78561 -17.529268,2.21339 -22.40479,5.40645 -8.243604,4.24185 -6.844613,12.67905 -10.094182,20.05332 -7.657873,3.99565 -15.89176,7.70848 -24.073998,7.6627 -2.445713,-1.54704 3.065319,-6.76618 4.49126,-8.83101 7.727044,-4.40331 8.780721,-11.38938 6.683071,-19.25412 -2.209899,-6.36962 -6.028599,-11.70089 -8.710955,-17.77198 -2.768721,-1.16118 -6.661905,6.65817 -8.179942,9.22144 -3.072927,6.04489 -4.197257,12.93549 -2.746098,19.05345 1.289694,4.01791 4.296768,6.43757 7.52476,8.49587 -10.861364,14.85446 -37.8104933,34.1316 -33.55580825,57.18651 z"
       id="path2810" />
    <path
       style="fill:#ffccaa;stroke:#ffe6d5;stroke-width:0.26764008"
       d=""
       id="path3127"
       inkscape:connector-curvature="0"
       transform="translate(0,572.36218)" />
    <path
       style="fill:#ffccaa;stroke:#ffe6d5;stroke-width:0.26764008"
       d=""
       id="path3149"
       inkscape:connector-curvature="0"
       transform="translate(0,572.36218)" />
    <path
       style="fill:#ffccaa;stroke:#ffe6d5;stroke-width:0.26764008"
       d=""
       id="path3151"
       inkscape:connector-curvature="0"
       transform="translate(0,572.36218)" />
    <path
       style="fill:#ffccaa;stroke:#ffe6d5;stroke-width:0.26764008"
       d=""
       id="path3153"
       inkscape:connector-curvature="0"
       transform="translate(0,572.36218)" />
  </g>
</svg>
